<?xml version="1.0" encoding="utf-8"?>
<!-- Generator: Adobe Illustrator 19.0.0, SVG Export Plug-In . SVG Version: 6.00 Build 0)  -->
<svg version="1.1" id="Layer_1" xmlns="http://www.w3.org/2000/svg" xmlns:xlink="http://www.w3.org/1999/xlink" x="0px" y="0px"
	 viewBox="0 0 1364.9 324.9" style="enable-background:new 0 0 1364.9 324.9;" xml:space="preserve">
<path id="XMLID_102_" d="M682.5,324.9c-0.2,0.5-0.3,0.9-0.5,1.4v-2.8C682.2,324,682.3,324.4,682.5,324.9z"/>
<path id="XMLID_98_" d="M0,0v68.4c0,0,588.2-25.5,682,255.1c0.2,0.5,0.3,0.9,0.5,1.4c0.2-0.5,0.3-0.9,0.5-1.4
	c93.8-280.6,682-255.1,682-255.1V0H0z"/>
<path id="XMLID_101_" d="M682.9,323.5v2.8c-0.2-0.5-0.3-0.9-0.5-1.4C682.6,324.4,682.8,324,682.9,323.5z"/>
</svg>
